<svg width="22" height="20" viewBox="0 0 22 20" fill="none" xmlns="http://www.w3.org/2000/svg">
<g clip-path="url(#clip0_7_243)">
<path d="M19.7442 11.5431C21.1373 10.9525 22.0762 9.73969 21.9951 8.16478C21.9726 7.72745 21.8757 7.29473 21.7144 6.88882C21.5655 6.51407 21.3255 6.2004 21.1547 5.84015C20.8033 5.09889 20.642 4.27644 20.3506 3.51123C19.097 0.219406 14.9864 -0.778997 12.0159 0.605558C10.6829 1.22686 9.65382 2.33875 8.99602 3.65831C10.0152 3.30194 11.1691 3.50945 12.007 4.19749C11.9741 4.2433 11.942 4.2894 11.9114 4.3361C10.5129 3.29304 8.47167 3.77883 7.66109 5.33161C6.87756 6.83257 7.56272 8.75502 9.10595 9.40542C10.0409 9.79944 11.1363 9.65791 11.9437 9.0381C11.9785 9.08098 12.0146 9.12294 12.0515 9.16392C11.1114 9.96465 9.75737 10.1395 8.65156 9.59691C9.05221 10.2483 9.61378 10.7838 10.2541 11.1875C9.78001 12.0602 9.45835 13.0433 9.43558 14.0461C9.41489 14.9576 9.46336 15.9421 9.78802 16.8019C8.96393 16.7816 8.01951 16.6235 7.44037 15.9672C6.89334 15.3472 6.78833 14.4403 6.78957 13.6416C6.79109 12.6568 7.00546 11.7138 7.13547 10.7445C7.26492 9.77941 7.18129 8.76908 6.77536 7.87796C5.95864 6.08505 3.75865 5.03144 1.92657 5.87499C0.135595 6.69961 -0.730752 9.16665 0.762156 10.7066C1.3699 11.3335 2.29497 11.6654 3.14216 11.4078C3.93597 11.1664 4.56928 10.4385 4.64995 9.59051C4.73048 8.74403 4.15839 7.85679 3.31647 7.68277C2.88968 7.59456 2.47833 7.92054 2.50771 8.3764C2.52052 8.57514 2.6244 8.76259 2.78542 8.8768C2.96415 9.00357 3.1914 8.99564 3.29969 9.21743C3.5066 9.64116 3.04089 10.0936 2.65937 10.1548C2.19975 10.2286 1.72978 9.89726 1.49859 9.51444C0.962069 8.62605 1.58532 7.51953 2.42374 7.11016C3.22895 6.71701 4.19643 6.94971 4.86996 7.50684C5.45313 7.98924 5.77205 8.71103 5.85628 9.46018C5.96171 10.3979 5.68082 11.3232 5.56926 12.2478C5.45785 13.1711 5.41425 14.1262 5.60353 15.0424C5.77848 15.8892 6.17727 16.678 6.84817 17.2268C7.51824 17.7749 8.36572 18.0221 9.21044 18.1044C9.74006 18.156 10.2743 18.1459 10.804 18.1017C11.0502 18.2562 11.3383 18.3751 11.6737 18.4567C11.7937 18.8519 12.1543 19.1275 12.5683 19.1275H20.9678C22.0058 19.1275 22.0125 17.8497 21.8832 17.1003C21.7491 16.3222 21.355 15.6025 20.7009 15.1578C20.696 13.7726 20.3062 12.6419 19.7442 11.5431ZM11.3702 7.83812C11.1243 8.09853 10.7794 8.26159 10.3971 8.26159C9.65276 8.26159 9.04721 7.64614 9.04721 6.8896C9.04721 6.13305 9.65276 5.5176 10.3971 5.5176C10.7655 5.5176 11.0995 5.66866 11.3433 5.91262C11.3006 6.2166 11.2795 6.55365 11.2795 6.93556C11.2795 7.2728 11.3111 7.57096 11.3702 7.83812ZM14.4726 7.93182C14.6063 7.23509 15.084 6.62831 15.3823 5.99556C15.6436 5.4413 15.8104 4.8322 16.1585 4.32471C16.7888 3.40557 17.8609 2.85509 18.9635 2.90485C19.5147 3.67288 19.7096 4.60299 20.0118 5.48612C20.1447 5.87423 20.2889 6.25896 20.5067 6.6068C20.7639 7.01746 20.9586 7.44708 21.0306 7.93257L20.8017 7.85798C20.4608 7.71828 20.2429 8.25084 20.4674 8.479L20.9082 8.92702C20.9327 8.95194 20.9603 8.9714 20.9889 8.98834C20.6015 10.5303 18.7975 10.9809 17.4436 11.1182C15.87 11.0148 14.1315 9.70972 14.4726 7.93182ZM18.9793 18.0326H12.6918H12.6909H12.6892C12.6677 17.8128 12.6411 17.6113 12.7776 17.4277C12.9283 17.2248 13.1799 17.0926 13.4 16.9856C14.0721 16.6589 14.8256 16.4845 15.5569 16.3619C16.3084 16.2358 17.1762 16.104 17.9163 16.3481C18.6215 16.5806 19.0928 17.2647 18.9793 18.0326ZM19.2671 17.7357C19.1982 16.7025 18.4421 16.0695 17.4627 15.9607C18.0952 15.9133 18.7898 15.9132 19.3105 16.3378C19.7855 16.725 19.9986 17.4293 19.9138 18.0326H19.2622C19.2738 17.9337 19.2738 17.8349 19.2671 17.7357ZM20.0897 17.0209C19.8871 16.3787 19.3882 15.9243 18.7519 15.7501C19.3726 15.7329 20.0098 15.8576 20.4246 16.3677C20.7815 16.8066 20.9246 17.4726 20.8493 18.0326H20.1966C20.2356 17.6981 20.1907 17.3407 20.0897 17.0209ZM19.96 15.0415C19.96 15.2425 19.9436 15.4463 19.9061 15.6439C19.5454 15.4943 19.156 15.4519 18.7693 15.465C18.4627 14.3678 18.623 13.1432 19.2352 12.1832C19.6426 13.0669 19.96 14.0562 19.96 15.0415ZM17.9079 6.84753C17.8896 6.24313 18.2172 5.74245 18.6397 5.72921C19.0621 5.71598 19.4195 6.19521 19.4378 6.79961C19.4561 7.40401 19.1285 7.9047 18.706 7.91794C18.2836 7.93117 17.9262 7.45193 17.9079 6.84753Z" fill="#753F8C"/>
</g>
<defs>
<clipPath id="clip0_7_243">
<rect width="22" height="19.1304" fill="white"/>
</clipPath>
</defs>
</svg>
