<svg width="25" height="25" viewBox="0 0 25 25" fill="none" xmlns="http://www.w3.org/2000/svg">
<path d="M15.3646 23.6979H10.6771V16.1458H9.6875C9.08333 16.1458 8.59375 15.6562 8.59375 15.0521V13.0729C8.59375 12.4688 9.08333 11.9792 9.6875 11.9792H10.6771V9.375C10.6771 7.21875 12.4271 5.46875 14.5833 5.46875H17.3958C18 5.46875 18.4896 5.95833 18.4896 6.5625V9.0625C18.4896 9.66667 18 10.1562 17.3958 10.1562H15.3646V11.9792H17.3229C17.4844 11.9783 17.6441 12.0135 17.7904 12.082C17.9366 12.1506 18.0658 12.2508 18.1685 12.3755C18.2712 12.5001 18.3449 12.6461 18.3842 12.8027C18.4236 12.9594 18.4275 13.1229 18.3958 13.2812L18 15.2604C17.8958 15.7708 17.4479 16.1354 16.9271 16.1354H15.3646V23.6979ZM12.2396 22.1354H13.8021V14.5833H16.5521L16.7604 13.5417H13.8125V9.6875C13.8125 9.08333 14.3021 8.59375 14.9062 8.59375H16.9375V7.03125H14.5833C13.2917 7.03125 12.2396 8.08333 12.2396 9.375V13.5417H10.1562V14.5833H12.2396V22.1354Z" fill="#576067"/>
<path d="M15.625 23.6978H9.37504C3.71879 23.6978 1.30212 21.2812 1.30212 15.6249V9.37492C1.30212 3.71867 3.71879 1.302 9.37504 1.302H15.625C21.2813 1.302 23.698 3.71867 23.698 9.37492V15.6249C23.698 21.2812 21.2813 23.6978 15.625 23.6978ZM9.37504 2.8645C4.57296 2.8645 2.86462 4.57284 2.86462 9.37492V15.6249C2.86462 20.427 4.57296 22.1353 9.37504 22.1353H15.625C20.4271 22.1353 22.1355 20.427 22.1355 15.6249V9.37492C22.1355 4.57284 20.4271 2.8645 15.625 2.8645H9.37504Z" fill="#576067"/>
</svg>
