<svg width="25" height="25" viewBox="0 0 25 25" fill="none" xmlns="http://www.w3.org/2000/svg">
<path d="M15.3645 23.4376H9.11454C3.45829 23.4376 1.04163 21.0209 1.04163 15.3647V9.11467C1.04163 3.45842 3.45829 1.04175 9.11454 1.04175H15.3645C21.0208 1.04175 23.4375 3.45842 23.4375 9.11467V15.3647C23.4375 21.0209 21.0208 23.4376 15.3645 23.4376ZM9.11454 2.60425C4.31246 2.60425 2.60413 4.31258 2.60413 9.11467V15.3647C2.60413 20.1667 4.31246 21.8751 9.11454 21.8751H15.3645C20.1666 21.8751 21.875 20.1667 21.875 15.3647V9.11467C21.875 4.31258 20.1666 2.60425 15.3645 2.60425H9.11454Z" fill="#576067"/>
<path d="M12.5 16.9271C11.3267 16.9243 10.2022 16.457 9.37258 15.6274C8.54293 14.7977 8.07563 13.6733 8.07288 12.5C8.07563 11.3267 8.54293 10.2023 9.37258 9.37262C10.2022 8.54298 11.3267 8.07567 12.5 8.07292C13.6732 8.07567 14.7977 8.54298 15.6273 9.37262C16.457 10.2023 16.9243 11.3267 16.927 12.5C16.9243 13.6733 16.457 14.7977 15.6273 15.6274C14.7977 16.457 13.6732 16.9243 12.5 16.9271ZM12.5 9.63542C10.9166 9.63542 9.63538 10.9167 9.63538 12.5C9.63538 14.0833 10.9166 15.3646 12.5 15.3646C14.0833 15.3646 15.3645 14.0833 15.3645 12.5C15.3645 10.9167 14.0833 9.63542 12.5 9.63542ZM17.7083 7.8125C17.5729 7.8125 17.4375 7.78125 17.3125 7.72917C17.1875 7.67709 17.0729 7.60417 16.9687 7.51042C16.875 7.40625 16.7916 7.29167 16.7395 7.16667C16.6894 7.04083 16.6646 6.9063 16.6666 6.77084C16.6666 6.63542 16.6875 6.5 16.7395 6.375C16.802 6.23959 16.875 6.13542 16.9687 6.03125C17.0208 5.98959 17.0729 5.9375 17.125 5.90625C17.1875 5.86459 17.25 5.83334 17.3125 5.8125C17.5023 5.73356 17.7112 5.7122 17.9131 5.7511C18.115 5.79 18.3009 5.88743 18.4479 6.03125C18.5416 6.13542 18.6145 6.23959 18.6666 6.375C18.7187 6.5 18.75 6.63542 18.75 6.77084C18.75 6.90625 18.7187 7.04167 18.6666 7.16667C18.6145 7.29167 18.5416 7.40625 18.4479 7.51042C18.3437 7.60417 18.2291 7.67709 18.1041 7.72917C17.9791 7.78125 17.8437 7.8125 17.7083 7.8125Z" fill="#576067"/>
</svg>
