<svg width="25" height="25" viewBox="0 0 25 25" fill="none" xmlns="http://www.w3.org/2000/svg">
<path d="M17.7084 21.6147H7.29171C3.70837 21.6147 1.30212 19.2084 1.30212 15.6251V9.37508C1.30212 5.79175 3.70837 3.3855 7.29171 3.3855H17.7084C21.2917 3.3855 23.698 5.79175 23.698 9.37508V15.6251C23.698 19.2084 21.2917 21.6147 17.7084 21.6147ZM7.29171 4.948C4.60421 4.948 2.86462 6.68758 2.86462 9.37508V15.6251C2.86462 18.3126 4.60421 20.0522 7.29171 20.0522H17.7084C20.3959 20.0522 22.1355 18.3126 22.1355 15.6251V9.37508C22.1355 6.68758 20.3959 4.948 17.7084 4.948H7.29171Z" fill="#6C3EB8"/>
<path d="M11.0312 16.1771C10.7292 16.1771 10.4375 16.1042 10.1771 15.9584C9.57292 15.6146 9.21875 14.9167 9.21875 14.0521V10.9688C9.21875 10.1042 9.5625 9.40628 10.1771 9.06253C10.7813 8.71878 11.5625 8.78128 12.3021 9.22919L14.875 10.7709C15.5833 11.1979 15.9896 11.8334 15.9896 12.5104C15.9896 13.1875 15.5833 13.8229 14.875 14.25L12.3021 15.7917C11.875 16.0417 11.4375 16.1771 11.0312 16.1771ZM11.0312 10.3854C10.9988 10.385 10.9667 10.3921 10.9375 10.4063C10.8646 10.4479 10.7813 10.6354 10.7813 10.9584V14.0417C10.7813 14.3542 10.8646 14.5417 10.9375 14.5938C11.0208 14.6354 11.2187 14.6146 11.4896 14.4479L14.0625 12.9063C14.3229 12.75 14.4167 12.5938 14.4167 12.5C14.4167 12.4063 14.3229 12.2604 14.0625 12.0938L11.4896 10.5521C11.3021 10.4375 11.1354 10.3854 11.0312 10.3854Z" fill="#6C3EB8"/>
</svg>
